<svg width="49" height="45" viewBox="0 0 49 45" xmlns="http://www.w3.org/2000/svg"><g transform="translate(1 1)" fill="none"><g id="Group" transform="translate(0 1)"><rect id="Rectangle-2" opacity=".5" fill-opacity=".3" fill="#0A0D19" x="19" y="5" width="9" height="1"/><rect id="Rectangle-2-copy" opacity=".5" fill-opacity=".3" fill="#0A0D19" x="10" y="21" width="9" height="1"/><rect id="Rectangle-2-copy-2" opacity=".5" fill-opacity=".3" fill="#0A0D19" x="28" y="21" width="9" height="1"/><rect id="Rectangle-2-copy" opacity=".5" fill-opacity=".3" fill="#0A0D19" x="19" y="37" width="9" height="1"/><path d="M24 16c2.538 0 5 2.463 5 5 0 3.535-2.462 6-5 6-3.538 0-6-2.465-6-6 0-2.537 2.462-5 6-5" id="Fill-16" fill-opacity=".3" fill="#0A0D19"/><path d="M42 16c2.538 0 5 2.463 5 5 0 3.535-2.462 6-5 6-3.538 0-6-2.465-6-6 0-2.537 2.462-5 6-5" id="Fill-16-copy" fill-opacity=".3" fill="#0A0D19"/><path d="M15 32c2.538 0 5 2.463 5 5 0 3.535-2.462 6-5 6-3.538 0-6-2.465-6-6 0-2.537 2.462-5 6-5" id="Fill-16-copy" fill-opacity=".3" fill="#0A0D19"/><path d="M33 32c2.538 0 5 2.463 5 5 0 3.535-2.462 6-5 6-3.538 0-6-2.465-6-6 0-2.537 2.462-5 6-5" id="Fill-16-copy-2" fill-opacity=".3" fill="#0A0D19"/><path d="M15 0c2.538 0 5 2.463 5 5 0 3.535-2.462 6-5 6-3.538 0-6-2.465-6-6 0-2.537 2.462-5 6-5" id="Fill-16-copy-2" fill-opacity=".3" fill="#0A0D19"/><path d="M33 0c2.538 0 5 2.463 5 5 0 3.535-2.462 6-5 6-3.538 0-6-2.465-6-6 0-2.537 2.462-5 6-5" id="Fill-16-copy-3" fill-opacity=".3" fill="#0A0D19"/><path d="M6 16c2.538 0 5 2.463 5 5 0 3.535-2.462 6-5 6-3.538 0-6-2.465-6-6 0-2.537 2.462-5 6-5" id="Fill-16-copy-2" fill-opacity=".3" fill="#0A0D19"/><path d="M14.5 5.5l9 16" id="Line" stroke-opacity=".3" stroke="#0A0D19" stroke-linecap="square" opacity=".5"/><path d="M32.5 5.5l9 16" id="Line-copy" stroke-opacity=".3" stroke="#0A0D19" stroke-linecap="square" opacity=".5"/><path d="M23.5 5.5l9 16" id="Line-copy" stroke-opacity=".3" stroke="#0A0D19" stroke-linecap="square" opacity=".5" transform="matrix(-1 0 0 1 56 0)"/><path d="M5.5 5.5l9 16" id="Line-copy-2" stroke-opacity=".3" stroke="#0A0D19" stroke-linecap="square" opacity=".5" transform="matrix(-1 0 0 1 20 0)"/><path d="M14.5 21.5l9 16" id="Line-copy" stroke-opacity=".3" stroke="#0A0D19" stroke-linecap="square" opacity=".5" transform="matrix(1 0 0 -1 0 59)"/><path d="M32.5 21.5l9 16" id="Line-copy-2" stroke-opacity=".3" stroke="#0A0D19" stroke-linecap="square" opacity=".5" transform="matrix(1 0 0 -1 0 59)"/><path d="M23.5 21.5l9 16" id="Line-copy-2" stroke-opacity=".3" stroke="#0A0D19" stroke-linecap="square" opacity=".5" transform="matrix(-1 0 0 -1 56 59)"/><path d="M5.5 21.5l9 16" id="Line-copy-3" stroke-opacity=".3" stroke="#0A0D19" stroke-linecap="square" opacity=".5" transform="matrix(-1 0 0 -1 20 59)"/></g><g><rect opacity=".5" fill="#fff" x="19" y="5" width="9" height="1"/><rect id="Rectangle-2-copy" opacity=".5" fill="#fff" x="10" y="21" width="9" height="1"/><rect opacity=".5" fill="#fff" x="28" y="21" width="9" height="1"/><rect opacity=".5" fill="#fff" x="19" y="37" width="9" height="1"/><path d="M24 16c2.538 0 5 2.463 5 5 0 3.535-2.462 6-5 6-3.538 0-6-2.465-6-6 0-2.537 2.462-5 6-5" fill="#fff"/><path d="M42 16c2.538 0 5 2.463 5 5 0 3.535-2.462 6-5 6-3.538 0-6-2.465-6-6 0-2.537 2.462-5 6-5" id="Fill-16-copy" fill="#fff"/><path d="M15 32c2.538 0 5 2.463 5 5 0 3.535-2.462 6-5 6-3.538 0-6-2.465-6-6 0-2.537 2.462-5 6-5" fill="#fff"/><path d="M33 32c2.538 0 5 2.463 5 5 0 3.535-2.462 6-5 6-3.538 0-6-2.465-6-6 0-2.537 2.462-5 6-5" id="Fill-16-copy-2" fill="#fff"/><path d="M15 0c2.538 0 5 2.463 5 5 0 3.535-2.462 6-5 6-3.538 0-6-2.465-6-6 0-2.537 2.462-5 6-5" id="Fill-16-copy-2" fill="#fff"/><path d="M33 0c2.538 0 5 2.463 5 5 0 3.535-2.462 6-5 6-3.538 0-6-2.465-6-6 0-2.537 2.462-5 6-5" fill="#fff"/><path d="M6 16c2.538 0 5 2.463 5 5 0 3.535-2.462 6-5 6-3.538 0-6-2.465-6-6 0-2.537 2.462-5 6-5" fill="#fff"/><path d="M14.5 5.5l9 16" stroke="#fff" stroke-linecap="square" opacity=".5"/><path d="M32.5 5.5l9 16" id="Line-copy" stroke="#fff" stroke-linecap="square" opacity=".5"/><path d="M23.5 5.5l9 16" id="Line-copy" stroke="#fff" stroke-linecap="square" opacity=".5" transform="matrix(-1 0 0 1 56 0)"/><path d="M5.5 5.5l9 16" id="Line-copy-2" stroke="#fff" stroke-linecap="square" opacity=".5" transform="matrix(-1 0 0 1 20 0)"/><path d="M14.5 21.5l9 16" stroke="#fff" stroke-linecap="square" opacity=".5" transform="matrix(1 0 0 -1 0 59)"/><path d="M32.5 21.5l9 16" id="Line-copy-2" stroke="#fff" stroke-linecap="square" opacity=".5" transform="matrix(1 0 0 -1 0 59)"/><path d="M23.5 21.5l9 16" stroke="#fff" stroke-linecap="square" opacity=".5" transform="matrix(-1 0 0 -1 56 59)"/><path d="M5.5 21.5l9 16" stroke="#fff" stroke-linecap="square" opacity=".5" transform="matrix(-1 0 0 -1 20 59)"/></g></g></svg>
